<svg xmlns="http://www.w3.org/2000/svg" viewBox="0 0 960 560">
  <rect width="960" height="560" fill="#eef4fb"/>
  <rect x="58" y="42" width="844" height="476" rx="24" fill="#ffffff" stroke="#c7d6e8" stroke-width="3"/>
  <rect x="58" y="42" width="844" height="48" rx="24" fill="#dce9f8"/>
  <circle cx="94" cy="66" r="8" fill="#f87171"/>
  <circle cx="120" cy="66" r="8" fill="#fbbf24"/>
  <circle cx="146" cy="66" r="8" fill="#34d399"/>
  <rect x="210" y="54" width="510" height="24" rx="12" fill="#ffffff" stroke="#bfd0e2"/>
  <text x="230" y="71" font-family="Segoe UI, Arial" font-size="14" fill="#334155">chrome://extensions</text>

  <text x="92" y="126" font-family="Segoe UI, Arial" font-size="28" font-weight="700" fill="#0f172a">Chrome Extensions</text>
  <rect x="710" y="114" width="118" height="34" rx="17" fill="#1d4ed8"/>
  <circle cx="803" cy="131" r="13" fill="#ffffff"/>
  <text x="728" y="136" font-family="Segoe UI, Arial" font-size="14" fill="#ffffff">Developer mode</text>

  <rect x="92" y="176" width="150" height="44" rx="12" fill="#1d4ed8"/>
  <text x="117" y="204" font-family="Segoe UI, Arial" font-size="18" font-weight="700" fill="#ffffff">Load unpacked</text>
  <rect x="260" y="176" width="108" height="44" rx="12" fill="#e2e8f0"/>
  <text x="289" y="204" font-family="Segoe UI, Arial" font-size="18" fill="#334155">Pack</text>

  <rect x="92" y="260" width="238" height="184" rx="18" fill="#f8fbff" stroke="#cbd9e7" stroke-width="2"/>
  <rect x="118" y="286" width="56" height="56" rx="12" fill="#dbeafe"/>
  <rect x="128" y="300" width="36" height="28" rx="6" fill="#1d4ed8"/>
  <text x="196" y="316" font-family="Segoe UI, Arial" font-size="20" font-weight="700" fill="#0f172a">Student Score</text>
  <text x="196" y="342" font-family="Segoe UI, Arial" font-size="20" font-weight="700" fill="#0f172a">Filler</text>
  <text x="118" y="384" font-family="Segoe UI, Arial" font-size="15" fill="#475569">Version 1.0</text>
  <text x="118" y="412" font-family="Segoe UI, Arial" font-size="15" fill="#475569">Enabled</text>

  <path d="M752 224 L752 173" stroke="#ef4444" stroke-width="5" stroke-linecap="round"/>
  <polygon points="752,160 742,178 762,178" fill="#ef4444"/>
  <rect x="680" y="224" width="144" height="60" rx="14" fill="#fee2e2" stroke="#ef4444" stroke-width="2"/>
  <text x="698" y="249" font-family="Segoe UI, Arial" font-size="16" font-weight="700" fill="#991b1b">1. Turn on</text>
  <text x="698" y="270" font-family="Segoe UI, Arial" font-size="16" font-weight="700" fill="#991b1b">Developer mode</text>

  <path d="M560 220 L244 198" stroke="#16a34a" stroke-width="5" stroke-linecap="round"/>
  <polygon points="232,197 249,189 248,208" fill="#16a34a"/>
  <rect x="526" y="188" width="128" height="60" rx="14" fill="#dcfce7" stroke="#16a34a" stroke-width="2"/>
  <text x="544" y="213" font-family="Segoe UI, Arial" font-size="16" font-weight="700" fill="#166534">2. Click</text>
  <text x="544" y="234" font-family="Segoe UI, Arial" font-size="16" font-weight="700" fill="#166534">Load unpacked</text>
</svg>