<svg xmlns="http://www.w3.org/2000/svg" viewBox="0 0 960 680">
  <rect width="960" height="680" fill="#eef6f4"/>
  <rect x="284" y="50" width="392" height="570" rx="28" fill="#ffffff" stroke="#cbd5e1" stroke-width="3"/>
  <circle cx="620" cy="90" r="12" fill="#dbeafe" stroke="#60a5fa"/>
  <text x="617" y="95" text-anchor="middle" font-family="Segoe UI, Arial" font-size="14" font-weight="700" fill="#1d4ed8">i</text>

  <image href="../../logo.svg" x="442" y="78" width="76" height="76"/>
  <text x="480" y="188" text-anchor="middle" font-family="Segoe UI, Arial" font-size="24" font-weight="700" fill="#0f172a">Student Score Filler</text>

  <rect x="334" y="226" width="292" height="52" rx="12" fill="#16a34a"/>
  <text x="480" y="258" text-anchor="middle" font-family="Segoe UI, Arial" font-size="20" font-weight="700" fill="#ffffff">Select CSV File</text>

  <rect x="334" y="298" width="292" height="46" rx="10" fill="#f8fafc" stroke="#cbd5e1"/>
  <text x="352" y="326" font-family="Segoe UI, Arial" font-size="16" fill="#475569">a.csv</text>

  <text x="334" y="378" font-family="Segoe UI, Arial" font-size="16" font-weight="700" fill="#0f172a">Student ID column</text>
  <rect x="334" y="388" width="292" height="42" rx="10" fill="#ffffff" stroke="#cbd5e1"/>
  <text x="352" y="414" font-family="Segoe UI, Arial" font-size="15" fill="#334155">1. id</text>

  <text x="334" y="462" font-family="Segoe UI, Arial" font-size="16" font-weight="700" fill="#0f172a">Score column</text>
  <rect x="334" y="472" width="292" height="42" rx="10" fill="#ffffff" stroke="#cbd5e1"/>
  <text x="352" y="498" font-family="Segoe UI, Arial" font-size="15" fill="#334155">2. score</text>

  <text x="334" y="546" font-family="Segoe UI, Arial" font-size="16" font-weight="700" fill="#0f172a">Reason code</text>
  <rect x="334" y="556" width="292" height="42" rx="10" fill="#ffffff" stroke="#cbd5e1"/>
  <text x="352" y="582" font-family="Segoe UI, Arial" font-size="15" fill="#334155">OE - Original Entry</text>

  <rect x="58" y="250" width="180" height="74" rx="14" fill="#dbeafe" stroke="#60a5fa" stroke-width="2"/>
  <text x="78" y="282" font-family="Segoe UI, Arial" font-size="18" font-weight="700" fill="#1d4ed8">1. Upload file</text>
  <text x="78" y="306" font-family="Segoe UI, Arial" font-size="15" fill="#1e3a8a">Choose your CSV file</text>
  <path d="M238 286 L334 252" stroke="#1d4ed8" stroke-width="4" stroke-linecap="round"/>

  <rect x="700" y="344" width="194" height="82" rx="14" fill="#dcfce7" stroke="#16a34a" stroke-width="2"/>
  <text x="720" y="376" font-family="Segoe UI, Arial" font-size="18" font-weight="700" fill="#166534">2. Pick columns</text>
  <text x="720" y="400" font-family="Segoe UI, Arial" font-size="15" fill="#166534">Select ID and score</text>
  <path d="M700 384 L626 410" stroke="#16a34a" stroke-width="4" stroke-linecap="round"/>

  <rect x="700" y="514" width="194" height="86" rx="14" fill="#fee2e2" stroke="#ef4444" stroke-width="2"/>
  <text x="720" y="546" font-family="Segoe UI, Arial" font-size="18" font-weight="700" fill="#991b1b">3. Fill scores</text>
  <text x="720" y="570" font-family="Segoe UI, Arial" font-size="15" fill="#991b1b">Apply marks and reason</text>
  <path d="M700 556 L626 576" stroke="#ef4444" stroke-width="4" stroke-linecap="round"/>

  <rect x="334" y="626" width="292" height="0" fill="none"/>
</svg>