<svg xmlns="http://www.w3.org/2000/svg" viewBox="0 0 960 560">
  <rect width="960" height="560" fill="#eff6ff"/>
  <rect x="92" y="74" width="776" height="410" rx="24" fill="#ffffff" stroke="#cbd5e1" stroke-width="3"/>
  <text x="124" y="118" font-family="Segoe UI, Arial" font-size="28" font-weight="700" fill="#0f172a">Select extension folder</text>

  <rect x="124" y="150" width="712" height="54" rx="12" fill="#f8fafc" stroke="#cbd5e1"/>
  <text x="146" y="184" font-family="Consolas, monospace" font-size="18" fill="#334155">d:\project for 2026 BH\chrome-extension</text>

  <rect x="124" y="232" width="712" height="168" rx="18" fill="#f8fbff" stroke="#d9e2ec"/>
  <rect x="152" y="262" width="180" height="104" rx="14" fill="#dbeafe" stroke="#93c5fd"/>
  <path d="M178 292h38l16 16h74v34H178z" fill="#1d4ed8"/>
  <text x="182" y="342" font-family="Segoe UI, Arial" font-size="20" font-weight="700" fill="#0f172a">chrome-extension</text>

  <rect x="372" y="260" width="428" height="34" rx="10" fill="#ffffff" stroke="#d9e2ec"/>
  <text x="392" y="282" font-family="Segoe UI, Arial" font-size="16" fill="#475569">manifest.json</text>
  <rect x="372" y="306" width="428" height="34" rx="10" fill="#ffffff" stroke="#d9e2ec"/>
  <text x="392" y="328" font-family="Segoe UI, Arial" font-size="16" fill="#475569">popup.html</text>
  <rect x="372" y="352" width="428" height="34" rx="10" fill="#ffffff" stroke="#d9e2ec"/>
  <text x="392" y="374" font-family="Segoe UI, Arial" font-size="16" fill="#475569">popup.js</text>

  <path d="M640 438 L640 392" stroke="#ef4444" stroke-width="5" stroke-linecap="round"/>
  <polygon points="640,380 630,398 650,398" fill="#ef4444"/>
  <rect x="544" y="438" width="192" height="54" rx="14" fill="#fee2e2" stroke="#ef4444" stroke-width="2"/>
  <text x="563" y="470" font-family="Segoe UI, Arial" font-size="18" font-weight="700" fill="#991b1b">Choose this folder</text>
</svg>